<svg width="183" height="153" viewBox="0 0 183 153" fill="none" xmlns="http://www.w3.org/2000/svg">
<ellipse cx="103.5" cy="70" rx="79.5" ry="70" fill="white"/>
<path d="M38 77L70.909 134H5.09103L38 77Z" fill="white"/>
<path d="M137.786 92.926H141V102.796H135.108C126.486 102.796 122.743 99.5319 122.593 91.8824L122.565 90.4677L121.773 91.6294C116.257 99.7239 108.495 103 98.0447 103C90.3114 103 83.7793 101.062 79.1543 97.397C74.4739 93.6875 72 88.3729 72 82.0272C72 74.8395 74.4194 69.2622 79.1909 65.4505C84.0389 61.5778 91.1882 59.6142 100.44 59.6142H122.029V53.2894C122.029 43.4541 115.17 37.5822 103.682 37.5822C93.7498 37.5822 86.6295 42.3116 84.9943 49.9527H74.3171C76.1819 36.195 87.3287 28 104.246 28C113.294 28 120.365 30.2537 125.261 34.6986C130.187 39.1702 132.685 45.6669 132.685 54.0082V86.9174C132.685 91.3725 134.637 92.926 137.786 92.926ZM122.029 68.621H99.3132C94.0118 68.621 89.9224 69.6543 87.1587 71.6927C84.2647 73.8274 82.7972 77.0621 82.7972 81.3072C82.7972 85.0095 84.32 88.1572 87.2012 90.4106C90.078 92.6604 94.12 93.8497 98.8904 93.8497C105.945 93.8497 111.837 91.8119 115.93 87.9562C119.92 84.1986 122.029 78.9151 122.029 72.6767V68.621Z" fill="#222428"/>
</svg>
